<svg xmlns="http://www.w3.org/2000/svg" version="1.1" xmlns:xlink="http://www.w3.org/1999/xlink" xmlns:svgjs="http://svgjs.dev/svgjs" width="1000" height="229" viewBox="0 0 1000 229"><g transform="matrix(1,0,0,1,-0.6056348047761162,-0.4790073703041031)"><svg viewBox="0 0 396 91" data-background-color="#ffffff" preserveAspectRatio="xMidYMid meet" height="229" width="1000" xmlns="http://www.w3.org/2000/svg" xmlns:xlink="http://www.w3.org/1999/xlink"><g id="tight-bounds" transform="matrix(1,0,0,1,0.24008861730862918,0.19034790697673998)"><svg viewBox="0 0 395.52 90.61930418604652" height="90.61930418604652" width="395.52"><g><svg viewBox="0 0 395.52 90.61930418604652" height="90.61930418604652" width="395.52"><g><svg viewBox="0 0 395.52 90.61930418604652" height="90.61930418604652" width="395.52"><g id="textblocktransform"><svg viewBox="0 0 395.52 90.61930418604652" height="90.61930418604652" width="395.52" id="textblock"><g><svg viewBox="0 0 395.52 90.61930418604652" height="90.61930418604652" width="395.52"><path d="M394.594 19.436C392.735 10.03 387.435 7.415 387.435 7.415 371.165-2.274 350.86-0.185 332.619 1.207 300.414 1.263 268.339 3.333 236.208 4.443 168.767 4.612 100.749 1.828 33.643 8.694 27.339 10.801-6.54 9.108 1.121 20.64 3.129 25.437 10.456 30.761 10.232 35.163 11.236 35.935 12.631 34.166 13.226 35.276 15.309 38.267 18.711 36.856 21.501 38.625 17.614 43.347 20.403 47.279 23.062 51.399 18.377 52.471 12.371 51.963 9.675 55.518 9.396 58.096 7.89 57.607 6.235 57.494 5.026 57.419 2.59 57.701 2.999 58.51 4.394 61.275-1.594 62.874 2.162 65.583-0.422 68.518 3.948 71.058 3.353 74.237 3.278 74.877 3.687 75.422 4.338 75.573 7.22 76.382 3.018 77.962 3.464 79.674 33.029 91.375 65.104 83.286 95.394 88.666 103.259 84.904 97.346 90.002 100.489 89.212 102.943 88.29 104.728 92.109 107.499 89.945 107.927 89.325 107.276 87.857 108.8 88.139 109.6 88.29 110.307 88.252 110.418 87.387 110.586 86.089 109.117 86.898 108.726 86.22 112.947 82.797 111.906 90.942 115.866 90.604 115.68 89.607 114.528 88.177 116.889 88.365 119.232 86.935 119.306 85.75 121.389 88.967 121.463 89.663 121.835 90.152 122.43 90.491 128.938 86.992 135.409 91.733 142.233 90.152 146.417 88.422 150.433 91.093 154.672 90.434 156.16 89.908 157.666 88.967 159.098 90.547 176.632 90.886 195.319 89.475 211.943 90.604 256.364 88.497 303.835 91.469 350.674 88.685 361.719 87.613 373.192 86.089 383.958 84.866 383.958 84.866 392.679 81.517 392.679 66.467S394.538 53.299 394.817 41.315C395.096 29.331 396.398 28.842 394.538 19.436Z" opacity="1" fill="#ff0000" data-fill-palette-color="tertiary"></path><g transform="matrix(1,0,0,1,55.76832,26.230666666666668)"><svg width="283.98335999999995" viewBox="2.25 -35.900001525878906 270.8800048828125 36.400001525878906" height="38.15797085271318" data-palette-color="#ffffff"><path d="M16.25 0.5L16.25 0.5Q13.5 0.5 10.83 0.03 8.15-0.45 6.1-1.2 4.05-1.95 3.15-2.7L3.15-2.7 3.15-13.15Q5.05-12.1 7.4-11.25 9.75-10.4 12.18-9.93 14.6-9.45 16.8-9.45L16.8-9.45Q19.85-9.45 19.85-10.85L19.85-10.85Q19.85-11.55 19.23-12.03 18.6-12.5 17.05-13.05 15.5-13.6 12.65-14.45L12.65-14.45Q9.35-15.5 7.03-16.65 4.7-17.8 3.48-19.6 2.25-21.4 2.25-24.4L2.25-24.4Q2.25-29.6 6.4-32.75 10.55-35.9 18.55-35.9L18.55-35.9Q20.15-35.9 21.98-35.77 23.8-35.65 24.9-35.45L24.9-35.45 31.05-31.3 28.55-23.7 15.75-26.95Q13.75-26.95 13.75-25.6L13.75-25.6Q13.75-24.55 15.03-23.88 16.3-23.2 19.65-22.05L19.65-22.05Q24.1-20.55 26.73-18.98 29.35-17.4 30.5-15.4 31.65-13.4 31.65-10.65L31.65-10.65Q31.65-5.65 27.8-2.58 23.95 0.5 16.25 0.5ZM53.45 0.5L53.45 0.5Q50 0.5 46.77-0.3 43.55-1.1 41-3.1 38.45-5.1 36.95-8.65 35.45-12.2 35.45-17.7L35.45-17.7Q35.45-22.65 36.9-26.13 38.35-29.6 40.85-31.75 43.35-33.9 46.6-34.9 49.85-35.9 53.45-35.9L53.45-35.9Q56-35.9 58.42-35.5 60.85-35.1 61.95-34.6L61.95-34.6 68-29.55 63-21.3 53.45-25.7Q51.75-25.7 50.27-24.78 48.8-23.85 47.87-22.08 46.95-20.3 46.95-17.7L46.95-17.7Q46.95-14.4 47.97-12.63 49-10.85 50.92-10.2 52.85-9.55 55.5-9.55L55.5-9.55Q58.05-9.55 60.32-10.08 62.6-10.6 64.35-11.3 66.1-12 67-12.5L67-12.5 67-2.5Q66-2 64.17-1.28 62.35-0.55 59.67-0.03 57 0.5 53.45 0.5ZM84.5 0L73.5 0 73.5-27.35 72.5-32.4 73.5-35.4 91.5-35.4Q95.55-35.4 98.45-34.1 101.34-32.8 102.9-29.93 104.45-27.05 104.45-22.35L104.45-22.35Q104.45-18 103-15.2 101.55-12.4 98.75-10.95L98.75-10.95 99.59-10.25 103.05-5.55 105.9-3 105.9 0 92.65 0 87.15-9.15 84.5-9.15 84.5-8.05 85-3.05 84.5 0ZM84-25.9L84.5-18.5 87.4-18.5Q89.15-18.5 90.42-18.65 91.7-18.8 92.4-19.58 93.09-20.35 93.09-22.1L93.09-22.1Q93.09-23.95 92.34-24.75 91.59-25.55 90.27-25.73 88.95-25.9 87.2-25.9L87.2-25.9 84-25.9ZM120.94 0L109.89 0 109.89-27.4 109.39-32.4 109.89-35.4 120.94-35.4 120.94 0ZM149.94 0L127.94 0 127.94-27.4 126.94-32.4 127.94-35.4 146.94-35.4Q152.59-35.4 155.99-33.2 159.39-31 159.39-26.5L159.39-26.5Q159.39-24.05 158.52-22.48 157.64-20.9 156.29-19.8L156.29-19.8Q157.99-19.4 159.49-18.32 160.99-17.25 161.94-15.48 162.89-13.7 162.89-11.1L162.89-11.1Q162.89-5.85 159.81-2.93 156.74 0 149.94 0L149.94 0ZM138.94-25.9L138.94-21.65 144.84-21.65Q146.54-21.65 147.29-22.18 148.04-22.7 148.04-23.8L148.04-23.8Q148.04-24.95 146.94-25.43 145.84-25.9 144.34-25.9L144.34-25.9 138.94-25.9ZM138.94-14.2L138.94-9.5 147.44-9.5Q149.44-9.5 150.24-10.13 151.04-10.75 151.04-11.8L151.04-11.8Q151.04-14.2 147.94-14.2L147.94-14.2 138.94-14.2ZM190.89 0L168.89 0 168.89-27.4 167.89-32.4 168.89-35.4 187.89-35.4Q193.54-35.4 196.94-33.2 200.34-31 200.34-26.5L200.34-26.5Q200.34-24.05 199.46-22.48 198.59-20.9 197.24-19.8L197.24-19.8Q198.94-19.4 200.44-18.32 201.94-17.25 202.89-15.48 203.84-13.7 203.84-11.1L203.84-11.1Q203.84-5.85 200.76-2.93 197.69 0 190.89 0L190.89 0ZM179.89-25.9L179.89-21.65 185.79-21.65Q187.49-21.65 188.24-22.18 188.99-22.7 188.99-23.8L188.99-23.8Q188.99-24.95 187.89-25.43 186.79-25.9 185.29-25.9L185.29-25.9 179.89-25.9ZM179.89-14.2L179.89-9.5 188.39-9.5Q190.39-9.5 191.19-10.13 191.99-10.75 191.99-11.8L191.99-11.8Q191.99-14.2 188.89-14.2L188.89-14.2 179.89-14.2ZM235.79 0L209.84 0 208.84-3 209.84-8 209.84-35.4 220.84-35.4 220.84-16.35 220.34-9.5 221.34-9.5 230.29-10 233.84-10.5 238.24-3.2 235.79 0ZM270.18 0L242.23 0 241.23-3 242.23-8 242.23-35.4 267.98-35.4 270.48-33.9 267.18-25.4 262.68-25.9 253.33-25.9 253.33-21.9 265.68-21.9 265.68-13.65 258.78-13.65 253.33-14.15 253.33-9.5 267.18-9.5 273.13-3.2 270.18 0Z" opacity="1" transform="matrix(1,0,0,1,0,0)" fill="#ffffff" class="wordmark-text-0" data-fill-palette-color="quaternary" id="text-0"></path></svg></g></svg></g></svg></g></svg></g><g></g></svg></g><defs></defs></svg><rect width="395.52" height="90.61930418604652" fill="none" stroke="none" visibility="hidden"></rect></g></svg></g></svg>